PathFileType	4	(X/Y/Z)	 s10c0302.trc
DataRate	CameraRate	NumFrames	NumMarkers	Units	OrigDataRate	OrigDataStartFrame	OrigNumFrames
200	200	4	50	mm	200	1251	2000
Frame#	Time	racr			lacr			c7			jug			rlel			rdr			llel			ldr			s2			lic			ric			lasi			rasi			rpsi			lpsi			rgt			lgt			rth1			rth2			rth3			rth4			rlfc			rmfc			rsh1			rsh2			rsh3			rsh4			rlmal			rmmal			rcal			rtoe			rmt5			lth1			lth2			lth4			lth3			llfc			lmfc			llmal			lmmal			lcal			lmt5			lsh1			lsh2			lsh3			lsh4			ltoe			SBIKE			LBIKE			RBIKE			
		X1	Y1	Z1	X2	Y2	Z2	X3	Y3	Z3	X4	Y4	Z4	X5	Y5	Z5	X6	Y6	Z6	X7	Y7	Z7	X8	Y8	Z8	X9	Y9	Z9	X10	Y10	Z10	X11	Y11	Z11	X12	Y12	Z12	X13	Y13	Z13	X14	Y14	Z14	X15	Y15	Z15	X16	Y16	Z16	X17	Y17	Z17	X18	Y18	Z18	X19	Y19	Z19	X20	Y20	Z20	X21	Y21	Z21	X22	Y22	Z22	X23	Y23	Z23	X24	Y24	Z24	X25	Y25	Z25	X26	Y26	Z26	X27	Y27	Z27	X28	Y28	Z28	X29	Y29	Z29	X30	Y30	Z30	X31	Y31	Z31	X32	Y32	Z32	X33	Y33	Z33	X34	Y34	Z34	X35	Y35	Z35	X36	Y36	Z36	X37	Y37	Z37	X38	Y38	Z38	X39	Y39	Z39	X40	Y40	Z40	X41	Y41	Z41	X42	Y42	Z42	X43	Y43	Z43	X44	Y44	Z44	X45	Y45	Z45	X46	Y46	Z46	X47	Y47	Z47	X48	Y48	Z48	X49	Y49	Z49	X50	Y50	Z50	
1251	6.2550	682.338260	1312.452282	-28.657162	709.250307	1265.209723	-344.239349	692.222269	1329.179209	-190.091196	646.195090	1190.074977	-175.504217	593.989202	1073.049728	72.213566	646.089814	874.450065	-13.226105	575.615426	1053.390871	-495.326170	663.319063	889.275610	-377.217871	158.369717	1175.349932	-171.556536	302.672133	1162.656402	-333.981707	343.510515	1166.359293	-42.485786	315.757207	1082.089133	-309.297623	343.205211	1076.282696	-61.951642	215.384683	1221.823814	-126.651579	206.234051	1232.400135	-237.412841	250.085369	1063.266678	3.053244	175.054201	1051.141107	-363.146884	312.970331	921.031181	15.149236	363.804269	852.232932	-10.825323	374.923643	768.454267	-18.201705	393.749946	869.069524	-23.536153	403.464054	665.051724	-39.975119	386.928892	672.906221	-157.588197	297.303655	614.965506	-9.268785	235.603860	553.071081	-26.526878	152.856859	528.404743	-29.560804	251.269120	533.666572	-56.115804	55.038153	475.550707	-46.801656	84.562611	466.827979	-124.984466	23.562829	516.129331	-96.432532	81.390213	277.638116	-98.918539	29.429157	346.672050	-38.904384	243.042175	931.569198	-386.832340	313.262875	880.688998	-384.333977	341.334759	902.827244	-377.482080	347.694665	798.432211	-380.406504	424.255896	697.594016	-368.420882	433.668768	689.268395	-255.334204	239.261576	366.822468	-369.243266	252.552974	373.218765	-288.076258	177.821599	335.761616	-328.086570	347.996268	276.000773	-384.431695	353.573793	597.919293	-397.822255	340.952409	511.532498	-381.772563	285.607067	442.181118	-381.549943	365.339250	504.720863	-353.184158	428.590264	303.393333	-323.177424	-203.989238	832.958706	-224.784424	-78.168365	81.838246	-423.605024	-102.578168	80.672080	-24.398928	
1252	6.2600	681.762577	1313.443088	-26.859962	708.631217	1264.895446	-342.951654	691.922200	1329.486803	-188.685041	644.698954	1190.814673	-173.560212	593.819679	1073.244404	74.261461	646.071716	874.524834	-13.180218	574.915322	1053.921794	-493.438250	663.825088	889.673451	-377.940837	158.388830	1174.546953	-174.438432	304.902543	1160.595365	-335.206783	341.755182	1166.329642	-43.365803	317.589506	1079.873891	-310.935926	342.522550	1075.949444	-63.482898	214.607393	1220.971333	-129.923144	207.157296	1230.804178	-240.473797	250.938147	1062.921401	0.376364	175.940578	1048.822696	-364.345168	314.504477	922.358151	13.808501	366.263519	854.290505	-11.334307	378.914801	770.532825	-18.248384	396.502420	871.435198	-23.932358	409.515133	668.326442	-40.419507	390.985163	676.901934	-159.087473	303.130249	619.908513	-9.266856	240.214621	559.199948	-26.558817	157.212261	536.115448	-28.886280	255.490188	539.744062	-56.231283	57.800775	485.990601	-46.313240	87.056817	477.076116	-124.484397	26.549422	526.523147	-96.055646	84.417158	288.320853	-98.739228	32.260529	357.231372	-38.595413	242.473737	927.899020	-386.873663	310.523923	874.089207	-383.099479	339.682095	895.970894	-377.863660	342.209385	790.955951	-379.147880	415.033280	687.543288	-365.890195	425.016268	678.509254	-252.703450	235.320976	355.487815	-368.655818	248.133506	362.257156	-288.040480	174.031092	323.736131	-327.584248	344.675990	265.427534	-384.381735	344.401987	589.054179	-396.375236	333.785572	502.581154	-381.592050	279.803753	431.826812	-380.550275	358.751658	495.774525	-353.092808	425.141580	293.390031	-323.318613	-203.928751	832.973786	-224.828220	-78.163759	81.816914	-423.580447	-102.560191	80.662573	-24.395891	
1253	6.2650	681.173532	1314.561773	-24.933721	708.110265	1264.538722	-341.654724	691.548165	1329.871333	-187.356662	643.546840	1191.508859	-171.608449	593.724842	1073.422615	76.277911	646.008155	874.572238	-13.147307	574.198179	1054.153938	-491.464090	663.823960	889.653193	-377.910288	158.050021	1173.329788	-176.725369	307.013432	1158.151244	-336.279175	339.863477	1166.231424	-44.276578	319.655483	1077.571056	-312.672623	341.894189	1075.483894	-64.652961	213.713951	1219.640335	-133.223403	207.975597	1228.901492	-243.005486	251.751239	1062.946902	-1.519600	176.883082	1045.993039	-365.385980	316.119612	923.841592	12.820273	368.914612	856.384919	-11.260685	382.337066	772.556213	-18.300078	398.990014	873.717788	-24.258460	415.559697	671.378115	-40.775097	395.258353	680.666304	-159.953215	309.151900	624.700002	-9.149662	245.429188	565.524061	-25.969038	161.276184	543.798965	-28.508248	260.372620	545.569505	-55.316659	61.048964	496.205039	-45.885255	90.085297	487.881595	-124.851503	29.850513	536.830115	-95.675737	88.153381	298.815781	-98.547395	35.818864	367.642009	-38.244090	242.047029	923.947505	-387.414317	307.996654	867.491135	-382.613752	337.910049	888.329026	-377.276038	336.654807	783.288976	-377.698709	405.976829	678.350180	-363.481819	413.012574	668.091842	-251.425703	230.753039	344.478511	-368.203885	243.170073	351.773978	-288.174691	169.830650	312.333894	-327.277875	340.753797	255.005544	-384.460587	335.402275	580.132719	-395.012104	326.394899	494.162632	-381.004828	273.544842	422.025481	-379.499013	352.002326	487.290995	-353.196440	421.221992	283.350099	-323.383544	-203.908072	832.965135	-224.809047	-78.156621	81.800450	-423.579634	-102.566897	80.638433	-24.383317	
1254	6.2700	680.597721	1315.725363	-22.934852	707.607429	1264.236680	-340.399728	691.156711	1330.208899	-186.074853	642.526292	1192.122385	-169.609045	593.998481	1073.478233	78.192011	645.910775	874.732235	-13.216253	573.516536	1054.334841	-489.438013	663.805734	889.496495	-377.828701	158.031969	1171.559337	-178.972242	309.228594	1155.804345	-337.611973	337.955909	1166.016217	-45.245825	321.861795	1075.004938	-314.312916	341.064888	1075.054497	-65.945067	213.943864	1218.110800	-134.381837	208.848107	1226.864014	-245.744440	252.006593	1062.152635	-3.526810	178.229801	1042.770027	-366.675536	317.466861	924.991203	11.787478	371.337359	858.338994	-11.396995	385.540946	774.509628	-18.360261	401.281768	875.959727	-24.583204	421.572060	674.288091	-40.956545	396.890099	685.888530	-161.258886	314.612064	629.860452	-8.887996	248.836140	571.643197	-26.418378	165.268385	551.438262	-28.154378	263.178340	551.299463	-56.505493	64.746174	506.260183	-45.555802	93.599531	497.514663	-123.973349	33.922852	547.298301	-95.138774	92.521891	309.194110	-98.409490	39.983433	378.229734	-38.136860	241.689832	919.541923	-387.521142	305.567948	860.707544	-382.045342	336.148547	880.685439	-376.688945	331.151217	775.464791	-376.125986	397.150941	669.898546	-360.974742	402.111453	659.210909	-248.801534	225.599221	334.124459	-368.010130	237.705375	341.780889	-288.467096	165.219544	301.558240	-327.309931	336.372640	244.875235	-384.545019	326.006283	571.581326	-393.219088	318.585721	485.080029	-379.802881	267.063289	412.513224	-378.465051	344.746063	478.440545	-352.546749	416.813593	273.272024	-323.456144	-203.900416	832.922823	-224.722913	-78.154526	81.787968	-423.573857	-102.585791	80.582376	-24.409118	
